# xmcd CD database file
#
# Track frame offsets:
#	150
#	2408
#	17365
#	37139
#
# Disc length: 747 seconds
#
# Revision: 0
# Processed by: cddbd v1.5.2PL0 Copyright (c) Steve Scherf et al.
# Submitted via: CDex 1.78
#
DISCID=1f02e904
DTITLE=eternal mortification - awakening of the dead
DYEAR=2015
DGENRE=brutal death metal
TTITLE0=the awakening
TTITLE1=rising from the grave
TTITLE2=extremely rotten flesh
TTITLE3=dissessected by zombies
EXTD=YEAR: 2015
EXTT0=
EXTT1=
EXTT2=
EXTT3=
PLAYORDER=
